<?xml version="1.0" encoding="UTF-8" standalone="no"?>
<svg
   viewBox="0 0 256 256"
   version="1.1"
   id="svg1"
   sodipodi:docname="house-simple(1).svg"
   xml:space="preserve"
   inkscape:version="1.3.2 (091e20ef0f, 2023-11-25)"
   xmlns:inkscape="http://www.inkscape.org/namespaces/inkscape"
   xmlns:sodipodi="http://sodipodi.sourceforge.net/DTD/sodipodi-0.dtd"
   xmlns="http://www.w3.org/2000/svg"
   xmlns:svg="http://www.w3.org/2000/svg"><defs
     id="defs1" /><sodipodi:namedview
     id="namedview1"
     pagecolor="#ffffff"
     bordercolor="#000000"
     borderopacity="0.25"
     inkscape:showpageshadow="2"
     inkscape:pageopacity="0.0"
     inkscape:pagecheckerboard="0"
     inkscape:deskcolor="#d1d1d1"
     inkscape:zoom="2.6033131"
     inkscape:cx="-120.61554"
     inkscape:cy="267.15957"
     inkscape:window-width="3840"
     inkscape:window-height="2091"
     inkscape:window-x="0"
     inkscape:window-y="0"
     inkscape:window-maximized="1"
     inkscape:current-layer="svg1" /><rect
     width="256"
     height="256"
     fill="none"
     id="rect1" /><path
     d="M40,216H216V120a8,8,0,0,0-2.34-5.66l-80-80a8,8,0,0,0-11.32,0l-80,80A8,8,0,0,0,40,120Z"
     fill="none"
     stroke="currentColor"
     stroke-linecap="round"
     stroke-linejoin="round"
     stroke-width="16"
     id="path1" /><g
     id="g1"
     transform="matrix(0.65270647,0,0,0.62895427,44.349655,68.930165)"><rect
       width="256"
       height="256"
       fill="none"
       id="rect1-3"
       x="0"
       y="0" /><rect
       x="48"
       y="48"
       width="64"
       height="64"
       rx="8"
       fill="none"
       stroke="currentColor"
       stroke-linecap="round"
       stroke-linejoin="round"
       stroke-width="16"
       id="rect2" /><rect
       x="144"
       y="48"
       width="64"
       height="64"
       rx="8"
       fill="none"
       stroke="currentColor"
       stroke-linecap="round"
       stroke-linejoin="round"
       stroke-width="16"
       id="rect3" /><rect
       x="48"
       y="144"
       width="64"
       height="64"
       rx="8"
       fill="none"
       stroke="currentColor"
       stroke-linecap="round"
       stroke-linejoin="round"
       stroke-width="16"
       id="rect4" /><rect
       x="144"
       y="144"
       width="64"
       height="64"
       rx="8"
       fill="none"
       stroke="currentColor"
       stroke-linecap="round"
       stroke-linejoin="round"
       stroke-width="16"
       id="rect5" /></g><g
     id="g2"
     transform="matrix(0.11332069,0,0,0.11332069,144.32892,105.52153)"><rect
       width="256"
       height="256"
       fill="none"
       id="rect1-6"
       x="0"
       y="0" /><circle
       cx="128"
       cy="80"
       r="12"
       id="circle1" /><path
       d="m 184,80 c 0,56 -56,88 -56,88 0,0 -56,-32 -56,-88 a 56,56 0 0 1 112,0 z"
       fill="none"
       stroke="currentColor"
       stroke-linecap="round"
       stroke-linejoin="round"
       stroke-width="8"
       id="path1-7" /><path
       d="m 200,155.14 c 19.72,7.28 32,17.52 32,28.86 0,22.09 -46.56,40 -104,40 -57.44,0 -104,-17.91 -104,-40 0,-11.34 12.28,-21.58 32,-28.86"
       fill="none"
       stroke="currentColor"
       stroke-linecap="round"
       stroke-linejoin="round"
       stroke-width="8"
       id="path2" /></g><g
     id="g3"
     transform="matrix(0.12368346,0,0,0.12368346,80.100209,164.17126)"><rect
       width="256"
       height="256"
       fill="none"
       id="rect1-5"
       x="0"
       y="0" /><line
       x1="87.660004"
       y1="56.73"
       x2="83.5"
       y2="33.09"
       fill="none"
       stroke="currentColor"
       stroke-linecap="round"
       stroke-linejoin="round"
       stroke-width="8"
       id="line1" /><line
       x1="56.689999"
       y1="76.459999"
       x2="37.029999"
       y2="62.689999"
       fill="none"
       stroke="currentColor"
       stroke-linecap="round"
       stroke-linejoin="round"
       stroke-width="8"
       id="line2" /><line
       x1="48.73"
       y1="112.31"
       x2="25.09"
       y2="116.48"
       fill="none"
       stroke="currentColor"
       stroke-linecap="round"
       stroke-linejoin="round"
       stroke-width="8"
       id="line3" /><line
       x1="123.52"
       y1="64.690002"
       x2="137.28"
       y2="45.029999"
       fill="none"
       stroke="currentColor"
       stroke-linecap="round"
       stroke-linejoin="round"
       stroke-width="8"
       id="line4" /><path
       d="m 96,144 a 68.06,68.06 0 1 1 68,72 H 84 a 44,44 0 1 1 14.2,-85.66"
       fill="none"
       stroke="currentColor"
       stroke-linecap="round"
       stroke-linejoin="round"
       stroke-width="8"
       id="path4" /><path
       d="M 59.65,135.35 A 48,48 0 1 1 139.84,84.41"
       fill="none"
       stroke="currentColor"
       stroke-linecap="round"
       stroke-linejoin="round"
       stroke-width="8"
       id="path5" /></g><g
     id="g4"
     transform="matrix(0.1053376,0,0,0.1053376,82.699061,105.35498)"><rect
       width="256"
       height="256"
       fill="none"
       id="rect1-2"
       x="0"
       y="0" /><line
       x1="128"
       y1="160"
       x2="128"
       y2="88"
       fill="none"
       stroke="currentColor"
       stroke-linecap="round"
       stroke-linejoin="round"
       stroke-width="8"
       id="line1-9" /><circle
       cx="128"
       cy="184"
       r="24"
       fill="none"
       stroke="currentColor"
       stroke-linecap="round"
       stroke-linejoin="round"
       stroke-width="8"
       id="circle1-1" /><path
       d="m 96,48 a 32,32 0 0 1 64,0 v 90 a 56,56 0 1 1 -64,0 z"
       fill="none"
       stroke="currentColor"
       stroke-linecap="round"
       stroke-linejoin="round"
       stroke-width="8"
       id="path1-2" /></g><g
     id="g5"
     transform="matrix(0.11365478,0,0,0.11365478,145.06851,165.66727)"><rect
       width="256"
       height="256"
       fill="none"
       id="rect1-7"
       x="0"
       y="0" /><path
       d="M 24,176 V 153.13 C 24,95.65 70.15,48.2 127.63,48 A 104,104 0 0 1 232,152 v 24 a 8,8 0 0 1 -8,8 H 32 a 8,8 0 0 1 -8,-8 z"
       fill="none"
       stroke="currentColor"
       stroke-linecap="round"
       stroke-linejoin="round"
       stroke-width="8"
       id="path1-0" /><line
       x1="128"
       y1="48"
       x2="128"
       y2="80"
       fill="none"
       stroke="currentColor"
       stroke-linecap="round"
       stroke-linejoin="round"
       stroke-width="8"
       id="line1-93" /><line
       x1="104"
       y1="184"
       x2="168"
       y2="96"
       fill="none"
       stroke="currentColor"
       stroke-linecap="round"
       stroke-linejoin="round"
       stroke-width="8"
       id="line2-6" /><line
       x1="200"
       y1="136"
       x2="230.78"
       y2="136"
       fill="none"
       stroke="currentColor"
       stroke-linecap="round"
       stroke-linejoin="round"
       stroke-width="8"
       id="line3-0" /><line
       x1="25.389999"
       y1="136"
       x2="56"
       y2="136"
       fill="none"
       stroke="currentColor"
       stroke-linecap="round"
       stroke-linejoin="round"
       stroke-width="8"
       id="line4-6" /></g></svg>
